<svg xmlns="http://www.w3.org/2000/svg" viewBox="0 0 1200 700" role="img" aria-label="Brig ship">
  <defs>
    <linearGradient id="sky" x1="0" y1="0" x2="0" y2="1">
      <stop offset="0%" stop-color="#efe7d8"/>
      <stop offset="100%" stop-color="#d8c4a1"/>
    </linearGradient>
    <linearGradient id="water" x1="0" y1="0" x2="0" y2="1">
      <stop offset="0%" stop-color="#6f96ab" stop-opacity="0.46"/>
      <stop offset="100%" stop-color="#2f5669" stop-opacity="0.82"/>
    </linearGradient>
    <linearGradient id="hull" x1="0" y1="0" x2="1" y2="0">
      <stop offset="0%" stop-color="#7f5532"/>
      <stop offset="100%" stop-color="#4d2c1b"/>
    </linearGradient>
    <linearGradient id="sail" x1="0" y1="0" x2="0" y2="1">
      <stop offset="0%" stop-color="#e9dfca"/>
      <stop offset="100%" stop-color="#bfa983"/>
    </linearGradient>
  </defs>
  <rect width="1200" height="700" fill="url(#sky)"/>
  <rect y="415" width="1200" height="285" fill="url(#water)"/>

  <path d="M180 500 Q600 360 1020 500 Q975 600 865 645 L335 645 Q225 600 180 500Z" fill="url(#hull)"/>
  <rect x="465" y="185" width="18" height="330" rx="8" fill="#4f321d"/>
  <rect x="700" y="210" width="18" height="305" rx="8" fill="#4f321d"/>
  <path d="M483 195 L700 255 L585 500 L450 450 Z" fill="url(#sail)"/>
  <path d="M718 220 L920 290 L835 505 L690 455 Z" fill="url(#sail)"/>

  <rect x="430" y="490" width="340" height="32" rx="10" fill="#3b2518" fill-opacity="0.36"/>
  <path d="M905 575 L905 640" stroke="#3f2b1c" stroke-width="8"/>
  <circle cx="905" cy="562" r="13" fill="#3f2b1c"/>
</svg>
