<svg xmlns="http://www.w3.org/2000/svg" viewBox="0 0 1200 700" role="img" aria-label="Galleon ship">
  <defs>
    <linearGradient id="sky" x1="0" y1="0" x2="0" y2="1">
      <stop offset="0%" stop-color="#eadfcb"/>
      <stop offset="100%" stop-color="#ccb18c"/>
    </linearGradient>
    <linearGradient id="water" x1="0" y1="0" x2="0" y2="1">
      <stop offset="0%" stop-color="#5e879f" stop-opacity="0.5"/>
      <stop offset="100%" stop-color="#21465c" stop-opacity="0.86"/>
    </linearGradient>
    <linearGradient id="hull" x1="0" y1="0" x2="1" y2="0">
      <stop offset="0%" stop-color="#6f4c2d"/>
      <stop offset="100%" stop-color="#3a2416"/>
    </linearGradient>
    <linearGradient id="sail" x1="0" y1="0" x2="0" y2="1">
      <stop offset="0%" stop-color="#ece0c2"/>
      <stop offset="100%" stop-color="#b89d72"/>
    </linearGradient>
  </defs>
  <rect width="1200" height="700" fill="url(#sky)"/>
  <rect y="405" width="1200" height="295" fill="url(#water)"/>

  <path d="M120 500 Q600 320 1080 500 Q1025 620 900 670 L300 670 Q175 620 120 500Z" fill="url(#hull)"/>
  <rect x="360" y="165" width="18" height="350" rx="8" fill="#3b2618"/>
  <rect x="585" y="130" width="20" height="385" rx="8" fill="#3b2618"/>
  <rect x="825" y="190" width="18" height="325" rx="8" fill="#3b2618"/>

  <path d="M378 175 L585 245 L470 505 L345 450 Z" fill="url(#sail)"/>
  <path d="M605 145 L835 230 L700 520 L550 455 Z" fill="url(#sail)"/>
  <path d="M843 205 L1020 280 L935 520 L810 460 Z" fill="url(#sail)"/>

  <rect x="300" y="468" width="600" height="44" rx="14" fill="#2d1d12" fill-opacity="0.4"/>
  <path d="M930 590 L930 660" stroke="#322217" stroke-width="9"/>
  <circle cx="930" cy="575" r="15" fill="#322217"/>
</svg>
